<?xml version="1.0" encoding="UTF-8"?>
<svg version="1.1" xmlns="http://www.w3.org/2000/svg" width="225" height="225">
<path d="M0,0 L17,0 L32,3 L47,9 L58,16 L66,23 L73,33 L77,43 L78,47 L78,63 L74,74 L69,82 L60,92 L49,99 L35,105 L22,108 L7,109 L-8,107 L-13,106 L-20,106 L-47,118 L-51,119 L-50,112 L-48,104 L-48,90 L-51,82 L-57,73 L-60,65 L-61,50 L-59,40 L-53,28 L-42,16 L-31,9 L-19,4 L-7,1 Z " fill="#FCFEFC" transform="translate(61,89)"/>
<path d="M0,0 L9,0 L27,2 L43,6 L59,13 L73,21 L85,32 L93,41 L101,55 L105,67 L106,84 L104,97 L99,109 L94,118 L88,128 L86,135 L85,146 L87,160 L92,175 L91,178 L61,165 L42,157 L32,158 L17,161 L14,161 L16,156 L22,147 L38,143 L48,143 L73,156 L72,145 L71,139 L71,126 L76,116 L84,103 L88,93 L90,84 L90,71 L87,60 L82,50 L74,40 L66,33 L51,24 L35,18 L18,14 L9,13 L-8,13 L-25,17 L-40,23 L-54,31 L-67,42 L-75,52 L-80,62 L-83,74 L-89,79 L-99,85 L-101,85 L-101,72 L-97,57 L-90,44 L-80,32 L-72,25 L-59,16 L-47,10 L-29,4 L-12,1 Z " fill="#FCFEFC" transform="translate(119,16)"/>
</svg>
