<?xml version="1.0" encoding="UTF-8"?>
<svg version="1.1" xmlns="http://www.w3.org/2000/svg" width="512" height="512">
<path d="M0,0 L9,0 L17,4 L165,152 L172,146 L315,3 L322,0 L332,0 L342,5 L347,13 L348,16 L348,26 L344,34 L196,182 L202,189 L345,332 L348,339 L348,349 L343,359 L335,364 L332,365 L322,365 L314,361 L166,213 L159,219 L16,362 L9,365 L-1,365 L-9,361 L-15,354 L-17,349 L-17,339 L-13,331 L135,183 L129,176 L-14,33 L-17,26 L-17,17 L-14,9 L-6,2 Z " fill="#FFFFFF" transform="translate(91,74)"/>
</svg>
