<?xml version="1.0" encoding="UTF-8"?>
<svg version="1.1" xmlns="http://www.w3.org/2000/svg" width="240" height="241">
<path d="M0,0 L15,0 L31,5 L42,12 L51,22 L59,37 L63,51 L66,70 L71,86 L77,97 L86,107 L94,113 L105,118 L121,122 L140,126 L156,132 L166,138 L175,145 L182,155 L186,164 L187,170 L187,193 L183,206 L177,217 L168,227 L157,234 L148,238 L144,239 L114,239 L99,234 L88,226 L81,218 L74,204 L71,191 L69,165 L65,151 L56,138 L47,130 L31,122 L14,118 L-2,115 L-18,109 L-27,104 L-37,96 L-44,88 L-51,74 L-53,66 L-53,49 L-49,36 L-43,25 L-34,15 L-25,8 L-14,3 Z " fill="#F0616E" transform="translate(53,2)"/>
<path d="M0,0 L14,1 L26,5 L36,11 L46,21 L53,35 L55,42 L55,62 L51,74 L45,84 L40,90 L27,99 L15,103 L9,104 L-2,104 L-15,101 L-26,95 L-36,86 L-42,77 L-46,68 L-48,59 L-48,45 L-45,33 L-39,22 L-30,12 L-19,5 L-7,1 Z " fill="#F0616E" transform="translate(185,1)"/>
<path d="M0,0 L16,0 L27,3 L37,8 L47,17 L54,26 L59,39 L60,45 L60,58 L57,70 L52,80 L44,90 L34,97 L22,102 L-5,102 L-16,98 L-27,90 L-35,81 L-41,69 L-43,62 L-43,42 L-39,29 L-32,18 L-25,11 L-11,3 Z " fill="#F0616E" transform="translate(43,139)"/>
</svg>
